<?xml version="1.0" standalone="no"?>
<!DOCTYPE svg PUBLIC "-//W3C//DTD SVG 20010904//EN"
 "http://www.w3.org/TR/2001/REC-SVG-20010904/DTD/svg10.dtd">
<svg version="1.0" xmlns="http://www.w3.org/2000/svg"
 width="700.000000pt" height="700.000000pt" viewBox="0 0 700.000000 700.000000"
 preserveAspectRatio="xMidYMid meet">
<metadata>
Created by potrace 1.11, written by Peter Selinger 2001-2013
</metadata>
<g transform="translate(0.000000,700.000000) scale(0.100000,-0.100000)"
fill="#000000" stroke="none">
<path d="M4539 6318 c0 -2 -2 -19 -4 -38 -3 -31 -14 -105 -21 -137 -1 -7 -12
-43 -24 -79 -83 -259 -277 -467 -565 -604 -105 -50 -277 -109 -383 -130 -34
-7 -60 -16 -56 -19 3 -3 9 -6 12 -7 112 -8 243 -42 362 -92 369 -156 592 -461
664 -909 5 -31 16 -22 17 13 2 91 14 153 56 289 76 250 239 452 457 570 64 34
211 89 271 99 17 3 41 8 55 11 31 7 126 18 162 18 15 0 25 3 23 6 -6 5 -10 6
-85 16 -371 50 -697 288 -838 610 -50 114 -98 300 -95 368 0 14 -5 24 -8 15z"/>
<path d="M3369 6016 c-2 -2 -38 -6 -79 -9 -453 -36 -948 -274 -1293 -622 -281
-284 -501 -687 -571 -1045 -2 -14 -9 -49 -15 -79 -6 -30 -14 -79 -17 -109 -3
-31 -8 -65 -10 -76 -7 -33 -6 -304 1 -381 40 -433 209 -842 484 -1175 106
-129 399 -391 465 -416 9 -3 16 -9 16 -14 0 -7 -252 -217 -346 -288 -24 -19
-44 -37 -44 -40 0 -13 252 -144 310 -163 14 -4 57 -19 95 -34 39 -14 93 -32
120 -40 28 -8 75 -21 105 -29 59 -17 235 -55 285 -62 17 -3 41 -7 54 -10 13
-3 46 -7 75 -10 28 -3 62 -7 76 -10 74 -12 230 -19 435 -19 243 1 386 10 545
34 36 6 81 13 100 15 56 8 256 54 334 77 202 58 414 147 536 224 l41 26 -118
96 c-198 162 -273 226 -273 233 0 4 22 21 49 39 149 96 323 261 486 462 21 26
106 152 138 204 78 130 210 448 231 555 2 14 11 57 20 95 8 39 17 84 21 100
27 139 27 520 -1 665 -2 14 -7 37 -9 53 -19 105 -32 157 -71 279 -19 60 -48
137 -63 171 -54 120 -95 202 -103 205 -4 2 -8 8 -8 13 0 5 -12 28 -26 50 -29
47 -35 47 -132 2 -75 -34 -157 -91 -210 -146 l-43 -44 32 -54 c55 -94 148
-308 164 -379 2 -8 10 -44 19 -80 8 -36 18 -81 21 -100 4 -19 9 -48 12 -65 9
-52 12 -389 3 -435 -5 -25 -11 -65 -15 -90 -3 -25 -11 -63 -17 -85 -5 -22 -12
-48 -14 -58 -11 -62 -77 -233 -125 -328 -49 -99 -129 -223 -194 -304 -63 -79
-211 -224 -283 -277 -31 -24 -59 -46 -62 -49 -3 -3 -42 -29 -87 -57 -180 -111
-401 -196 -592 -228 -18 -3 -43 -7 -55 -10 -107 -21 -333 -23 -476 -4 -716 93
-1307 646 -1449 1355 -11 55 -23 125 -26 155 -7 60 -8 323 -1 355 2 11 7 45
11 75 30 223 122 471 251 671 25 39 49 76 54 83 199 253 391 414 640 535 215
105 430 157 690 168 127 5 156 9 230 35 105 37 185 77 272 135 64 43 178 146
178 162 0 6 -134 44 -200 56 -26 5 -111 20 -170 30 -39 7 -395 16 -401 11z"/>
<path d="M2721 5005 c-41 -163 -136 -256 -330 -322 -68 -23 -87 -32 -65 -33
42 0 131 -30 185 -62 100 -59 179 -172 203 -291 l13 -62 7 45 c27 161 98 266
220 325 42 20 96 37 130 41 l58 7 -83 24 c-173 50 -280 160 -314 323 l-11 55
-13 -50z"/>
<path d="M4041 3941 c-40 -218 -233 -398 -496 -462 -58 -14 -80 -29 -44 -30
78 -2 218 -56 299 -116 76 -56 154 -156 193 -248 20 -47 47 -151 47 -179 0
-31 13 -9 16 26 11 164 121 352 253 433 63 39 172 75 250 82 l66 7 -90 21
c-191 45 -319 134 -400 280 -33 60 -71 173 -77 230 -2 21 -7 8 -17 -44z"/>
<path d="M1837 1427 c-62 -196 -69 -229 -63 -270 18 -109 104 -196 285 -286
156 -79 443 -161 684 -197 56 -8 112 -17 125 -19 12 -2 57 -7 100 -10 42 -4
86 -9 97 -11 84 -16 528 -22 740 -10 165 10 178 11 350 31 35 4 158 24 255 40
164 28 387 97 538 166 200 92 315 217 307 334 -2 32 -94 334 -106 348 -4 5
-33 -6 -65 -24 -124 -68 -198 -102 -342 -155 -237 -87 -567 -157 -842 -179
-47 -4 -94 -9 -105 -11 -26 -6 -511 -6 -550 0 -16 2 -69 7 -116 10 -47 4 -98
9 -115 11 -69 11 -92 15 -139 21 -40 5 -252 48 -336 68 -150 37 -358 115 -522
197 -76 38 -139 69 -140 69 -1 0 -19 -55 -40 -123z"/>
</g>
</svg>
